<?xml version="1.0" encoding="utf-8"?>
<!-- Generator: Adobe Illustrator 16.0.0, SVG Export Plug-In . SVG Version: 6.00 Build 0)  -->
<!DOCTYPE svg PUBLIC "-//W3C//DTD SVG 1.1//EN" "http://www.w3.org/Graphics/SVG/1.1/DTD/svg11.dtd">
<svg version="1.1" xmlns="http://www.w3.org/2000/svg" xmlns:xlink="http://www.w3.org/1999/xlink" x="0px" y="0px" width="1200px"
	 height="1200px" viewBox="0 0 1200 1200" enable-background="new 0 0 1200 1200" xml:space="preserve" class="aparecium-logo fox">
<g id="Background" display="none">
	<radialGradient id="BG_1_" cx="600" cy="600" r="600" gradientUnits="userSpaceOnUse">
		<stop  offset="0" style="stop-color:#1A2534"/>
		<stop  offset="1" style="stop-color:#1A252C"/>
	</radialGradient>
	<rect id="BG" display="inline" fill="url(#BG_1_)" width="1200" height="1200"/>
	<polyline fill="none" stroke="#FFFFFF" stroke-miterlimit="10" points="12.118,12.654 12.118,1188.541 12.118,1188.058 
		1187.064,1188.058 1186.561,1188.058 1186.561,13.616 1187.061,13.12 11.656,13.12 	"/>
</g>
<g id="Guides">
</g>
<g id="Slogan" display="none">
	<text transform="matrix(1 0 0 1 690.085 1048.5684)" display="inline"><tspan x="0" y="0" fill="#F36B31" font-family="'Helvetica-Bold'" font-size="36">{</tspan><tspan x="14.01" y="0" font-family="'Helvetica-Bold'" font-size="21">  </tspan><tspan x="25.679" y="0" fill="#BDBEBF" font-family="'Helvetica'" font-size="21">Reveal Your Business With Us</tspan><tspan x="311.619" y="0" font-family="'Helvetica-Bold'" font-size="21">  </tspan><tspan x="323.288" y="0" fill="#F36B31" font-family="'Helvetica-Bold'" font-size="36">}</tspan></text>
</g>
<g id="Fox">
	<polygon fill="#BDBEC0" stroke="#FFFFFF" stroke-miterlimit="10" points="1058.977,356.682 1100.332,463.247 926.018,623.893
		926.214,567.694 	"/>
	<polygon fill="#F15F3E" stroke="#FFFFFF" stroke-miterlimit="10" points="837.496,532.569 872.783,588.951 716.814,817.89 	"/>
	<polygon fill="#BDBEC0" stroke="#FFFFFF" stroke-miterlimit="10" points="136.135,354.199 292.34,568.224 270.073,626.543 
		89.287,460.594 	"/>
	<polygon fill="#1B2635" stroke="#FFFFFF" stroke-miterlimit="10" points="1058.977,122.343 1030.348,332.029 926.214,567.694 
		1058.977,356.682 	"/>
	<polygon fill="#202E42" stroke="#FFFFFF" stroke-miterlimit="10" points="945.253,338.657 1058.977,122.343 1030.348,332.029 
		926.214,567.694 	"/>
	<polyline fill="#364867" stroke="#FFFFFF" stroke-miterlimit="10" points="721.387,343.694 1058.977,122.343 945.253,338.657 
		721.387,343.694 	"/>
	<polyline fill="#2C3B56" stroke="#FFFFFF" stroke-miterlimit="10" points="721.387,343.694 926.214,567.694 945.253,338.657 
		721.387,343.694 	"/>
	<polygon fill="#2C3B56" stroke="#FFFFFF" stroke-miterlimit="10" points="136.469,121.814 252.579,338.657 292.34,568.224 
		174.11,350.851 	"/>
	<polygon fill="#1C2635" stroke="#FFFFFF" stroke-miterlimit="10" points="136.469,121.814 174.11,350.851 292.34,568.224 
		136.135,354.199 	"/>
	<polygon fill="#364867" stroke="#FFFFFF" stroke-miterlimit="10" points="136.469,121.814 472.603,343.699 252.579,338.657 	"/>
	<polygon fill="#2C3B56" stroke="#FFFFFF" stroke-miterlimit="10" points="292.869,567.434 471.556,344.886 472.603,343.699 
		253.107,337.87 	"/>
	<polygon fill="#F58846" stroke="#FFFFFF" stroke-miterlimit="10" points="370.276,532.437 472.603,343.699 292.34,568.224 	"/>
	<polygon fill="#F05A2B" stroke="#FFFFFF" stroke-miterlimit="10" points="596.996,615.94 721.387,343.694 598.782,411.289 
		472.603,343.699 	"/>
	<polygon fill="#C74227" stroke="#FFFFFF" stroke-miterlimit="10" points="721.387,343.694 472.603,343.699 598.782,411.289 	"/>
	<polygon fill="#F58846" stroke="#FFFFFF" stroke-miterlimit="10" points="721.387,343.694 926.214,567.694 837.496,532.569 	"/>
	<polygon fill="#F36B2F" stroke="#FFFFFF" stroke-miterlimit="10" points="721.387,343.694 837.496,532.569 716.814,817.89 
		598.916,751.268 487.179,817.89 370.276,532.437 472.603,343.699 596.996,615.94 	"/>
	<polygon fill="#F89C68" stroke="#FFFFFF" stroke-miterlimit="10" points="292.34,568.224 370.276,532.437 352.78,588.951 	"/>
	<polygon fill="#F15E3E" stroke="#FFFFFF" stroke-miterlimit="10" points="370.276,532.437 487.179,817.89 352.78,588.951 	"/>
	<polyline fill="#D34E29" stroke="#FFFFFF" stroke-miterlimit="10" points="292.34,568.224 352.78,588.951 487.179,817.89 
		292.34,568.224 	"/>
	<polygon fill="#0B1525" stroke="#FFFFFF" stroke-miterlimit="10" points="292.34,568.224 270.868,626.277 487.179,817.89 	"/>
	<polygon fill="#F6921E" stroke="#FFFFFF" stroke-miterlimit="10" points="487.179,817.89 598.916,751.268 716.814,817.89 	"/>
	<polygon fill="#0B1525" stroke="#FFFFFF" stroke-miterlimit="10" points="487.179,817.89 716.814,817.89 596.928,972.406 	"/>
	<polygon fill="#F15A2B" stroke="#FFFFFF" stroke-miterlimit="10" points="716.814,817.89 823.181,900.646 596.928,972.406 	"/>
	<polygon fill="#F15A2B" stroke="#FFFFFF" stroke-miterlimit="10" points="487.179,817.89 596.928,972.406 365.107,898.654 	"/>
	<path fill="#DD5432" stroke="#FFFFFF" stroke-miterlimit="10" d="M596.928,972.406c1.191,0,225.855-72.16,225.855-72.16
		l-16.302,54.875l-105.375,60.041L596.928,972.406z"/>
	<polygon fill="#DD5432" stroke="#FFFFFF" stroke-miterlimit="10" points="365.107,898.654 596.928,972.406 485.988,1015.162 
		377.831,956.907 	"/>
	<polygon fill="#E6E7E9" stroke="#FFFFFF" stroke-miterlimit="10" points="596.928,972.406 486.385,1015.559 548.018,1069.639 
		590.168,1043.791 635.099,1067.652 701.106,1014.764 	"/>
	<polygon fill="#DEDEE0" stroke="#FFFFFF" stroke-miterlimit="10" points="89.287,460.594 487.179,817.89 9.228,668.955 	"/>
	<polygon fill="#DEDEE0" stroke="#FFFFFF" stroke-miterlimit="10" points="716.814,817.89 1100.332,463.247 1184.629,662.065 	"/>
	<polygon fill="#E9EAEB" stroke="#FFFFFF" stroke-miterlimit="10" points="716.814,817.89 1183.038,662.86 1027.961,825.094 	"/>
	<polygon fill="#EDEDED" stroke="#FFFFFF" stroke-miterlimit="10" points="716.814,817.89 818.807,900.646 1028.757,826.686 	"/>
	<polygon fill="#EDEDED" stroke="#FFFFFF" stroke-miterlimit="10" points="153.963,825.094 487.179,817.89 365.107,898.654 	"/>
	<path fill="#C74227" stroke="#FFFFFF" stroke-miterlimit="10" d="M482.409,1015.958"/>
	<polygon fill="#E9EAEB" stroke="#FFFFFF" stroke-width="0.25" stroke-miterlimit="10" points="9.228,668.955 153.963,825.094 
		487.179,817.89 	"/>
	<polygon fill="#D34E29" stroke="#FFFFFF" stroke-miterlimit="10" points="872.783,588.951 926.214,567.694 716.814,817.89 	"/>
	<polygon fill="#0B1525" stroke="#FFFFFF" stroke-miterlimit="10" points="926.214,567.694 926.018,623.893 716.814,817.89 	"/>
	<polygon fill="#F89C68" stroke="#FFFFFF" stroke-miterlimit="10" points="872.783,588.951 837.496,532.569 926.214,567.694 	"/>
</g>
<g id="Logo" display="none">
	
		<text transform="matrix(1 0 0 1 163.0205 997.835)" display="inline" fill="#DEDEDF" font-family="'Norwester-Regular'" font-size="132.308">APARECIUM</text>
	
		<text transform="matrix(1 0 0 1 761.5977 997.835)" display="inline" fill="#F36B30" font-family="'Norwester-Regular'" font-size="132.308">LABS</text>
</g>
</svg>
