<?xml version="1.0" encoding="utf-8"?>
<!-- Generator: Adobe Illustrator 16.0.0, SVG Export Plug-In . SVG Version: 6.00 Build 0)  -->
<!DOCTYPE svg PUBLIC "-//W3C//DTD SVG 1.1//EN" "http://www.w3.org/Graphics/SVG/1.1/DTD/svg11.dtd">
<svg version="1.1" xmlns="http://www.w3.org/2000/svg" xmlns:xlink="http://www.w3.org/1999/xlink" x="0px" y="0px" width="1200px"
	 height="282px" viewBox="0 0 1200 282" enable-background="new 0 0 1200 282" xml:space="preserve">
<g id="Background" display="none">
	<radialGradient id="BG_1_" cx="600" cy="-253" r="600" gradientUnits="userSpaceOnUse">
		<stop  offset="0" style="stop-color:#1A2534"/>
		<stop  offset="1" style="stop-color:#1A252C"/>
	</radialGradient>
	<rect id="BG" y="-853" display="inline" fill="url(#BG_1_)" width="1200" height="1200"/>
	<polyline fill="none" stroke="#FFFFFF" stroke-miterlimit="10" points="12.118,-840.346 12.118,335.541 12.118,335.058 
		1187.064,335.058 1186.561,335.058 1186.561,-839.384 1187.061,-839.88 11.656,-839.88 	"/>
</g>
<g id="Guides">
</g>
<g id="Slogan">
	<text transform="matrix(1 0 0 1 718.7227 248.5498)"><tspan x="0" y="0" fill="#F36B31" font-family="'Helvetica-Bold'" font-size="48.3985">{</tspan><tspan x="18.835" y="0" font-family="'Helvetica-Bold'" font-size="28.2324">  </tspan><tspan x="34.522" y="0" fill="#BDBEBF" font-family="'Helvetica'" font-size="28.2324">Reveal Your Business With Us</tspan><tspan x="418.941" y="0" font-family="'Helvetica-Bold'" font-size="28.2324">  </tspan><tspan x="434.629" y="0" fill="#F36B31" font-family="'Helvetica-Bold'" font-size="48.3985">}</tspan></text>
</g>
<g id="Fox" display="none">
	<polygon display="inline" fill="#BDBEC0" stroke="#FFFFFF" stroke-miterlimit="10" points="1058.977,-496.318 1100.332,-389.753 
		926.018,-229.107 926.214,-285.306 	"/>
	<polygon display="inline" fill="#F15F3E" stroke="#FFFFFF" stroke-miterlimit="10" points="837.496,-320.431 872.783,-264.049 
		716.814,-35.11 	"/>
	<polygon display="inline" fill="#BDBEC0" stroke="#FFFFFF" stroke-miterlimit="10" points="136.135,-498.801 292.34,-284.776 
		270.073,-226.457 89.287,-392.406 	"/>
	<polygon display="inline" fill="#1B2635" stroke="#FFFFFF" stroke-miterlimit="10" points="1058.977,-730.657 1030.348,-520.971 
		926.214,-285.306 1058.977,-496.318 	"/>
	<polygon display="inline" fill="#202E42" stroke="#FFFFFF" stroke-miterlimit="10" points="945.253,-514.343 1058.977,-730.657 
		1030.348,-520.971 926.214,-285.306 	"/>
	<polyline display="inline" fill="#364867" stroke="#FFFFFF" stroke-miterlimit="10" points="721.387,-509.306 1058.977,-730.657 
		945.253,-514.343 721.387,-509.306 	"/>
	<polyline display="inline" fill="#2C3B56" stroke="#FFFFFF" stroke-miterlimit="10" points="721.387,-509.306 926.214,-285.306 
		945.253,-514.343 721.387,-509.306 	"/>
	<polygon display="inline" fill="#2C3B56" stroke="#FFFFFF" stroke-miterlimit="10" points="136.469,-731.186 252.579,-514.343 
		292.34,-284.776 174.11,-502.149 	"/>
	<polygon display="inline" fill="#1C2635" stroke="#FFFFFF" stroke-miterlimit="10" points="136.469,-731.186 174.11,-502.149 
		292.34,-284.776 136.135,-498.801 	"/>
	<polygon display="inline" fill="#364867" stroke="#FFFFFF" stroke-miterlimit="10" points="136.469,-731.186 472.603,-509.301 
		252.579,-514.343 	"/>
	<polygon display="inline" fill="#2C3B56" stroke="#FFFFFF" stroke-miterlimit="10" points="292.869,-285.566 471.556,-508.114 
		472.603,-509.301 253.107,-515.13 	"/>
	<polygon display="inline" fill="#F58846" stroke="#FFFFFF" stroke-miterlimit="10" points="370.276,-320.563 472.603,-509.301 
		292.34,-284.776 	"/>
	<polygon display="inline" fill="#F05A2B" stroke="#FFFFFF" stroke-miterlimit="10" points="596.996,-237.06 721.387,-509.306 
		598.782,-441.711 472.603,-509.301 	"/>
	<polygon display="inline" fill="#C74227" stroke="#FFFFFF" stroke-miterlimit="10" points="721.387,-509.306 472.603,-509.301 
		598.782,-441.711 	"/>
	<polygon display="inline" fill="#F58846" stroke="#FFFFFF" stroke-miterlimit="10" points="721.387,-509.306 926.214,-285.306 
		837.496,-320.431 	"/>
	<polygon display="inline" fill="#F36B2F" stroke="#FFFFFF" stroke-miterlimit="10" points="721.387,-509.306 837.496,-320.431 
		716.814,-35.11 598.916,-101.732 487.179,-35.11 370.276,-320.563 472.603,-509.301 596.996,-237.06 	"/>
	<polygon display="inline" fill="#F89C68" stroke="#FFFFFF" stroke-miterlimit="10" points="292.34,-284.776 370.276,-320.563 
		352.78,-264.049 	"/>
	<polygon display="inline" fill="#F15E3E" stroke="#FFFFFF" stroke-miterlimit="10" points="370.276,-320.563 487.179,-35.11 
		352.78,-264.049 	"/>
	<polyline display="inline" fill="#D34E29" stroke="#FFFFFF" stroke-miterlimit="10" points="292.34,-284.776 352.78,-264.049 
		487.179,-35.11 292.34,-284.776 	"/>
	<polygon display="inline" fill="#0B1525" stroke="#FFFFFF" stroke-miterlimit="10" points="292.34,-284.776 270.868,-226.723 
		487.179,-35.11 	"/>
	<polygon display="inline" fill="#F6921E" stroke="#FFFFFF" stroke-miterlimit="10" points="487.179,-35.11 598.916,-101.732 
		716.814,-35.11 	"/>
	<polygon display="inline" fill="#0B1525" stroke="#FFFFFF" stroke-miterlimit="10" points="487.179,-35.11 716.814,-35.11 
		596.928,119.406 	"/>
	<polygon display="inline" fill="#F15A2B" stroke="#FFFFFF" stroke-miterlimit="10" points="716.814,-35.11 823.181,47.646 
		596.928,119.406 	"/>
	<polygon display="inline" fill="#F15A2B" stroke="#FFFFFF" stroke-miterlimit="10" points="487.179,-35.11 596.928,119.406 
		365.107,45.654 	"/>
	<path display="inline" fill="#DD5432" stroke="#FFFFFF" stroke-miterlimit="10" d="M596.928,119.406
		c1.191,0,225.855-72.16,225.855-72.16l-16.302,54.875l-105.375,60.041L596.928,119.406z"/>
	<polygon display="inline" fill="#DD5432" stroke="#FFFFFF" stroke-miterlimit="10" points="365.107,45.654 596.928,119.406 
		485.988,162.162 377.831,103.907 	"/>
	<polygon display="inline" fill="#E6E7E9" stroke="#FFFFFF" stroke-miterlimit="10" points="596.928,119.406 486.385,162.559 
		548.018,216.639 590.168,190.791 635.099,214.652 701.106,161.764 	"/>
	<polygon display="inline" fill="#DEDEE0" stroke="#FFFFFF" stroke-miterlimit="10" points="89.287,-392.406 487.179,-35.11 
		9.228,-184.045 	"/>
	<polygon display="inline" fill="#DEDEE0" stroke="#FFFFFF" stroke-miterlimit="10" points="716.814,-35.11 1100.332,-389.753 
		1184.629,-190.935 	"/>
	<polygon display="inline" fill="#E9EAEB" stroke="#FFFFFF" stroke-miterlimit="10" points="716.814,-35.11 1183.038,-190.14 
		1027.961,-27.906 	"/>
	<polygon display="inline" fill="#EDEDED" stroke="#FFFFFF" stroke-miterlimit="10" points="716.814,-35.11 818.807,47.646 
		1028.757,-26.314 	"/>
	<polygon display="inline" fill="#EDEDED" stroke="#FFFFFF" stroke-miterlimit="10" points="153.963,-27.906 487.179,-35.11 
		365.107,45.654 	"/>
	<path display="inline" fill="#C74227" stroke="#FFFFFF" stroke-miterlimit="10" d="M482.409,162.958"/>
	<polygon display="inline" fill="#E9EAEB" stroke="#FFFFFF" stroke-width="0.25" stroke-miterlimit="10" points="9.228,-184.045 
		153.963,-27.906 487.179,-35.11 	"/>
	<polygon display="inline" fill="#D34E29" stroke="#FFFFFF" stroke-miterlimit="10" points="872.783,-264.049 926.214,-285.306 
		716.814,-35.11 	"/>
	<polygon display="inline" fill="#0B1525" stroke="#FFFFFF" stroke-miterlimit="10" points="926.214,-285.306 926.018,-229.107 
		716.814,-35.11 	"/>
	<polygon display="inline" fill="#F89C68" stroke="#FFFFFF" stroke-miterlimit="10" points="872.783,-264.049 837.496,-320.431 
		926.214,-285.306 	"/>
</g>
<g id="Logo">
	<text transform="matrix(1 0 0 1 10.1372 180.3447)" fill="#DEDEDF" font-family="'Norwester-Regular'" font-size="177.8752">APARECIUM</text>
	<text transform="matrix(1 0 0 1 814.8652 180.3457)" fill="#F36B30" font-family="'Norwester-Regular'" font-size="177.8752">LABS</text>
</g>
</svg>
